<svg width="94" height="27" viewBox="0 0 94 27" fill="none" xmlns="http://www.w3.org/2000/svg">
<rect width="94" height="27" rx="2.12387" fill="#5865F2"/>
<path d="M19.93 16.0049C19.93 14.9349 19.41 14.4449 17.99 13.8649C17.03 13.4649 16.81 13.2549 16.81 12.8149C16.81 12.3949 17.1 12.0749 17.76 12.0749C18.3 12.0749 18.89 12.2849 19.39 12.6149L19.59 11.4149C19.09 11.1549 18.55 10.9949 17.77 10.9949C16.48 10.9949 15.54 11.7049 15.54 12.9249C15.54 13.9949 16.08 14.4349 17.42 14.9849C18.42 15.4149 18.66 15.6249 18.66 16.1349C18.66 16.6849 18.24 16.9749 17.63 16.9749C16.94 16.9749 16.22 16.7049 15.64 16.3649L15.44 17.5749C16.05 17.8649 16.77 18.0549 17.61 18.0549C18.94 18.0549 19.93 17.3549 19.93 16.0049ZM24.992 15.5049C24.992 14.1349 24.342 13.0449 22.892 13.0449C21.632 13.0449 20.692 13.9949 20.692 15.5649C20.692 17.3049 21.702 18.0749 23.052 18.0749C23.832 18.0749 24.462 17.8449 24.982 17.4849L24.842 16.5449C24.312 16.9149 23.802 17.1449 23.182 17.1449C22.442 17.1449 21.942 16.7349 21.882 15.7949H24.982C24.982 15.7249 24.992 15.6049 24.992 15.5049ZM23.822 15.0449H21.902C21.992 14.2549 22.382 13.8749 22.862 13.8749C23.442 13.8749 23.742 14.2949 23.822 15.0449ZM30.0816 17.9749V14.4949C30.0816 13.5949 29.6016 13.0449 28.7016 13.0449C28.0516 13.0449 27.5416 13.3949 27.0916 13.8249L26.9816 13.1449H25.9616V17.9749H27.1616V14.7149C27.5116 14.3449 27.8816 14.1049 28.2616 14.1049C28.7016 14.1049 28.8816 14.3949 28.8816 14.8149V17.9749H30.0816ZM35.4738 17.9749V10.7549L34.2738 10.9449V13.2749C33.9838 13.1749 33.6138 13.0949 33.1538 13.0949C32.0338 13.0949 31.0438 13.8949 31.0438 15.6949C31.0438 17.3249 31.8538 18.0749 32.8638 18.0749C33.5338 18.0749 34.0038 17.7149 34.3438 17.3049L34.4438 17.9749H35.4738ZM34.2738 16.3449C33.9538 16.7449 33.6138 17.0049 33.1738 17.0049C32.6438 17.0049 32.2438 16.5649 32.2438 15.6249C32.2438 14.5649 32.7038 14.0549 33.3338 14.0549C33.7438 14.0549 33.9738 14.1249 34.2738 14.2649V16.3449ZM45.7627 17.9749V14.4949C45.7627 13.5949 45.3127 13.0449 44.4027 13.0449C43.7527 13.0449 43.2227 13.3949 42.7927 13.8249C42.6127 13.3549 42.2427 13.0449 41.5527 13.0449C40.9027 13.0449 40.4127 13.3949 39.9627 13.8249L39.8527 13.1449H38.8327V17.9749H40.0327V14.7049C40.3827 14.3449 40.7327 14.1049 41.1027 14.1049C41.5427 14.1049 41.7027 14.3949 41.7027 14.8149V17.9749H42.9027V14.7049C43.2527 14.3449 43.6027 14.1049 43.9727 14.1049C44.4127 14.1049 44.5627 14.3949 44.5627 14.8149V17.9749H45.7627ZM51.2674 15.5649C51.2674 13.9949 50.3074 13.0449 48.9874 13.0449C47.6774 13.0449 46.7174 13.9949 46.7174 15.5649C46.7174 17.1349 47.6674 18.0749 48.9774 18.0749C50.2974 18.0749 51.2674 17.1349 51.2674 15.5649ZM50.0974 15.5649C50.0974 16.4649 49.7174 17.0949 48.9774 17.0949C48.2774 17.0949 47.8874 16.4449 47.8874 15.5649C47.8874 14.6649 48.2674 14.0349 48.9774 14.0349C49.6974 14.0349 50.0974 14.6749 50.0974 15.5649ZM55.1509 14.2349L54.9609 13.0449C54.2109 13.0849 53.7309 13.5549 53.4109 14.1149L53.2609 13.1449H52.2409V17.9749H53.4409V15.2049C53.7809 14.6849 54.4009 14.2849 55.1509 14.2349ZM59.8358 15.5049C59.8358 14.1349 59.1858 13.0449 57.7358 13.0449C56.4758 13.0449 55.5358 13.9949 55.5358 15.5649C55.5358 17.3049 56.5458 18.0749 57.8958 18.0749C58.6758 18.0749 59.3058 17.8449 59.8258 17.4849L59.6858 16.5449C59.1558 16.9149 58.6458 17.1449 58.0258 17.1449C57.2858 17.1449 56.7858 16.7349 56.7258 15.7949H59.8258C59.8258 15.7249 59.8358 15.6049 59.8358 15.5049ZM58.6658 15.0449H56.7458C56.8358 14.2549 57.2258 13.8749 57.7058 13.8749C58.2858 13.8749 58.5858 14.2949 58.6658 15.0449ZM64.314 11.6549C64.314 11.2449 63.994 10.9549 63.604 10.9549C63.204 10.9549 62.884 11.2449 62.884 11.6549C62.884 12.0549 63.204 12.3349 63.604 12.3349C63.994 12.3349 64.314 12.0549 64.314 11.6549ZM64.194 17.9749V13.1449H62.994V17.9749H64.194ZM69.5835 17.9749V14.4949C69.5835 13.5949 69.1035 13.0449 68.2035 13.0449C67.5535 13.0449 67.0435 13.3949 66.5935 13.8249L66.4835 13.1449H65.4635V17.9749H66.6635V14.7149C67.0135 14.3449 67.3835 14.1049 67.7635 14.1049C68.2035 14.1049 68.3835 14.3949 68.3835 14.8149V17.9749H69.5835ZM73.3858 11.8649L73.2258 10.8849C73.1058 10.8649 72.9458 10.8449 72.7358 10.8449C71.7458 10.8449 71.0658 11.2449 71.0658 12.3149V13.1449H70.3658V14.1249H71.0658V17.9749H72.2558V14.1249H73.3258L73.1758 13.1449H72.2558V12.4349C72.2558 12.0049 72.4758 11.8249 72.8858 11.8249C73.0858 11.8249 73.2658 11.8449 73.3858 11.8649ZM78.2791 15.5649C78.2791 13.9949 77.3191 13.0449 75.9991 13.0449C74.6891 13.0449 73.7291 13.9949 73.7291 15.5649C73.7291 17.1349 74.6791 18.0749 75.9891 18.0749C77.3091 18.0749 78.2791 17.1349 78.2791 15.5649ZM77.1091 15.5649C77.1091 16.4649 76.7291 17.0949 75.9891 17.0949C75.2891 17.0949 74.8991 16.4449 74.8991 15.5649C74.8991 14.6649 75.2791 14.0349 75.9891 14.0349C76.7091 14.0349 77.1091 14.6749 77.1091 15.5649Z" fill="white"/>
</svg>
