<svg width="500" height="200" viewBox="0 0 500 200" fill="none" xmlns="http://www.w3.org/2000/svg">
<rect width="500" height="200" fill="#292B2F"/>
<g clip-path="url(#clip0_703_1094)">
<rect x="19" y="68" width="171" height="37" rx="4" fill="#58F287"/>
<path d="M22 52H351C352.105 52 353 52.8954 353 54V127C353 128.105 352.105 129 351 129H22V52Z" fill="#2F3136"/>
<path d="M42.024 92L41.374 83.03H38.579L36.824 89.205L35.082 83.03H32.209L31.559 92H33.496L33.886 86.033L35.589 92.013H37.669L39.372 86.033L39.762 92H42.024ZM48.5451 92V87.736C48.5451 86.111 47.6741 85.526 45.9191 85.526C44.8791 85.526 44.0601 85.721 43.3321 86.02L43.5661 87.502C44.2421 87.203 44.9051 87.021 45.6201 87.021C46.2701 87.021 46.5821 87.268 46.5821 87.827V87.944C44.0861 88.165 42.9421 88.867 42.9421 90.362C42.9421 91.519 43.6571 92.13 44.6711 92.13C45.5421 92.13 46.1531 91.753 46.6731 91.207L46.8031 92H48.5451ZM46.5821 90.245C46.2311 90.557 45.8671 90.726 45.4901 90.726C45.1261 90.726 44.8791 90.505 44.8791 90.102C44.8791 89.543 45.2431 89.101 46.5821 88.893V90.245ZM55.511 92V87.476C55.511 86.241 54.887 85.5 53.704 85.5C52.898 85.5 52.287 85.942 51.715 86.501L51.572 85.63H49.843V92H51.806V87.814C52.157 87.463 52.508 87.242 52.885 87.242C53.353 87.242 53.535 87.554 53.535 88.009V92H55.511ZM62.1164 92V87.736C62.1164 86.111 61.2454 85.526 59.4904 85.526C58.4504 85.526 57.6314 85.721 56.9034 86.02L57.1374 87.502C57.8134 87.203 58.4764 87.021 59.1914 87.021C59.8414 87.021 60.1534 87.268 60.1534 87.827V87.944C57.6574 88.165 56.5134 88.867 56.5134 90.362C56.5134 91.519 57.2284 92.13 58.2424 92.13C59.1134 92.13 59.7244 91.753 60.2444 91.207L60.3744 92H62.1164ZM60.1534 90.245C59.8024 90.557 59.4384 90.726 59.0614 90.726C58.6974 90.726 58.4504 90.505 58.4504 90.102C58.4504 89.543 58.8144 89.101 60.1534 88.893V90.245ZM64.7533 91.883C65.0653 91.935 65.2863 91.974 65.7543 92.013L66.7033 92.091C67.3923 92.169 67.6263 92.299 67.6263 92.598C67.6263 93.014 67.0413 93.352 66.0143 93.352C64.8703 93.352 64.3763 93.04 64.3763 92.598C64.3763 92.377 64.4933 92.143 64.7533 91.883ZM66.8333 87.723C66.8333 88.334 66.4953 88.776 65.8973 88.776C65.3253 88.776 64.9873 88.36 64.9873 87.762C64.9873 87.151 65.3253 86.683 65.8973 86.683C66.4823 86.683 66.8333 87.125 66.8333 87.723ZM67.8343 86.137C67.3533 85.76 66.6903 85.526 65.8843 85.526C64.3503 85.526 63.2063 86.397 63.2063 87.788C63.2063 88.607 63.6353 89.27 64.4283 89.634C63.8043 89.985 63.4793 90.375 63.4793 90.778C63.4793 91.025 63.6093 91.285 63.8303 91.48C63.1283 91.87 62.7903 92.286 62.7903 92.845C62.7903 93.82 64.0643 94.366 65.8583 94.366C67.8993 94.366 69.4203 93.469 69.4203 92.078C69.4203 91.116 68.6533 90.713 67.3793 90.583L66.2093 90.505C65.3513 90.401 65.1953 90.349 65.1953 90.167C65.1953 90.076 65.2473 89.985 65.3513 89.881C65.5463 89.907 65.7413 89.92 65.9493 89.92C67.3923 89.92 68.5883 89.101 68.5883 87.723C68.5883 87.489 68.5493 87.268 68.4713 87.047C68.4843 87.047 69.5893 87.021 69.5893 87.021L69.3423 85.565L67.8343 86.137ZM75.7183 88.802C75.7183 86.956 74.8473 85.5 72.8973 85.5C71.1683 85.5 69.8943 86.761 69.8943 88.841C69.8943 91.116 71.2593 92.13 73.1703 92.13C74.1713 92.13 75.0163 91.857 75.7053 91.415L75.5103 90.037C74.8083 90.44 74.1193 90.7 73.4173 90.7C72.5593 90.7 71.9613 90.31 71.8573 89.309H75.6793C75.7053 89.205 75.7183 88.997 75.7183 88.802ZM73.8463 88.23H71.8443C71.9093 87.255 72.2993 86.774 72.8453 86.774C73.4433 86.774 73.7813 87.268 73.8463 88.23ZM85.3365 85.63H83.4385L82.2685 89.556L81.0335 85.539L78.9275 85.786L81.2415 92.013L81.1635 92.208C80.9555 92.65 80.5655 92.819 80.1235 92.819C79.7465 92.819 79.5515 92.78 79.3435 92.715L79.5905 94.288C79.7725 94.327 79.9415 94.366 80.3315 94.366C81.7225 94.366 82.5025 93.794 83.0745 92.13L85.3365 85.63ZM91.696 88.815C91.696 86.774 90.396 85.5 88.628 85.5C86.873 85.5 85.573 86.787 85.573 88.828C85.573 90.869 86.86 92.13 88.615 92.13C90.383 92.13 91.696 90.856 91.696 88.815ZM89.798 88.828C89.798 89.855 89.382 90.544 88.628 90.544C87.887 90.544 87.471 89.842 87.471 88.815C87.471 87.775 87.874 87.112 88.628 87.112C89.382 87.112 89.798 87.801 89.798 88.828ZM98.3695 92V85.63H96.4065V89.829C96.0555 90.18 95.7045 90.401 95.3275 90.401C94.8595 90.401 94.6645 90.076 94.6645 89.621V85.63H92.7015V90.167C92.7015 91.402 93.3255 92.13 94.5085 92.13C95.3015 92.13 95.9125 91.701 96.4975 91.129L96.6405 92H98.3695ZM103.831 87.502L103.506 85.5C102.57 85.565 102.037 86.163 101.647 86.891L101.439 85.63H99.7229V92H101.686V88.464C102.167 87.944 102.882 87.567 103.831 87.502ZM112.137 91.545L111.903 89.946C111.357 90.297 110.915 90.44 110.447 90.44C109.654 90.44 109.017 89.907 109.017 88.815C109.017 87.749 109.589 87.216 110.382 87.216C110.902 87.216 111.318 87.359 111.825 87.684L112.085 86.007C111.565 85.708 110.954 85.526 110.187 85.526C108.458 85.526 107.028 86.618 107.028 88.867C107.028 90.921 108.276 92.117 110.109 92.117C110.863 92.117 111.5 91.935 112.137 91.545ZM118.834 92V85.63H116.871V89.829C116.52 90.18 116.169 90.401 115.792 90.401C115.324 90.401 115.129 90.076 115.129 89.621V85.63H113.166V90.167C113.166 91.402 113.79 92.13 114.973 92.13C115.766 92.13 116.377 91.701 116.962 91.129L117.105 92H118.834ZM125.167 90.037C125.167 88.854 124.569 88.425 122.879 87.97C121.982 87.723 121.8 87.58 121.8 87.32C121.8 87.073 122.008 86.904 122.476 86.904C123.087 86.904 123.88 87.125 124.569 87.502L124.816 86.007C124.153 85.708 123.321 85.539 122.463 85.539C120.903 85.539 120.019 86.332 120.019 87.515C120.019 88.711 120.695 89.14 122.294 89.556C123.191 89.777 123.373 89.92 123.373 90.245C123.373 90.544 123.113 90.726 122.567 90.726C121.839 90.726 120.916 90.44 120.162 89.972L119.928 91.467C120.591 91.818 121.54 92.104 122.554 92.104C124.244 92.104 125.167 91.376 125.167 90.037ZM129.963 91.961L129.716 90.349C129.573 90.388 129.417 90.414 129.248 90.414C128.715 90.414 128.468 90.18 128.468 89.66V87.229H129.924L129.677 85.63H128.468V83.433L126.518 83.732V85.63H125.673V87.229H126.518V89.972C126.518 91.597 127.467 92.091 128.832 92.091C129.352 92.091 129.651 92.052 129.963 91.961ZM136.65 88.815C136.65 86.774 135.35 85.5 133.582 85.5C131.827 85.5 130.527 86.787 130.527 88.828C130.527 90.869 131.814 92.13 133.569 92.13C135.337 92.13 136.65 90.856 136.65 88.815ZM134.752 88.828C134.752 89.855 134.336 90.544 133.582 90.544C132.841 90.544 132.425 89.842 132.425 88.815C132.425 87.775 132.828 87.112 133.582 87.112C134.336 87.112 134.752 87.801 134.752 88.828ZM146.925 92V87.476C146.925 86.241 146.301 85.5 145.118 85.5C144.325 85.5 143.701 85.929 143.129 86.501C142.895 85.929 142.414 85.5 141.543 85.5C140.724 85.5 140.139 85.916 139.567 86.501L139.424 85.63H137.695V92H139.658V87.801C140.009 87.463 140.334 87.242 140.698 87.242C141.153 87.242 141.322 87.554 141.322 88.009V92H143.285V87.801C143.636 87.463 143.974 87.242 144.325 87.242C144.78 87.242 144.949 87.554 144.949 88.009V92H146.925ZM154.186 88.646C154.186 86.488 153.198 85.5 151.898 85.5C151.144 85.5 150.598 85.916 150.195 86.332V82.614L148.232 82.926V91.623C148.973 91.909 149.935 92.078 150.962 92.078C152.925 92.078 154.186 91.012 154.186 88.646ZM152.223 88.776C152.223 90.037 151.677 90.505 150.91 90.505C150.611 90.505 150.455 90.466 150.195 90.388V87.866C150.52 87.502 150.858 87.255 151.274 87.255C151.833 87.255 152.223 87.71 152.223 88.776ZM161.076 88.815C161.076 86.774 159.776 85.5 158.008 85.5C156.253 85.5 154.953 86.787 154.953 88.828C154.953 90.869 156.24 92.13 157.995 92.13C159.763 92.13 161.076 90.856 161.076 88.815ZM159.178 88.828C159.178 89.855 158.762 90.544 158.008 90.544C157.267 90.544 156.851 89.842 156.851 88.815C156.851 87.775 157.254 87.112 158.008 87.112C158.762 87.112 159.178 87.801 159.178 88.828ZM165.916 91.961L165.669 90.349C165.526 90.388 165.37 90.414 165.201 90.414C164.668 90.414 164.421 90.18 164.421 89.66V87.229H165.877L165.63 85.63H164.421V83.433L162.471 83.732V85.63H161.626V87.229H162.471V89.972C162.471 91.597 163.42 92.091 164.785 92.091C165.305 92.091 165.604 92.052 165.916 91.961Z" fill="white"/>
</g>
<rect x="94" y="112" width="120" height="20" rx="2" fill="#5865F2"/>
<path d="M111.232 122.713C111.232 120.784 110.054 119.445 107.774 119.445H105.694V126H107.774C110.007 126 111.232 124.66 111.232 122.713ZM109.95 122.722C109.95 124.261 109.123 124.964 107.746 124.964H106.948V120.48H107.765C109.076 120.48 109.95 121.212 109.95 122.722ZM116.116 123.653C116.116 122.352 115.498 121.316 114.121 121.316C112.924 121.316 112.031 122.219 112.031 123.71C112.031 125.363 112.99 126.095 114.273 126.095C115.014 126.095 115.612 125.876 116.106 125.534L115.973 124.641C115.47 124.993 114.985 125.211 114.396 125.211C113.693 125.211 113.218 124.822 113.161 123.929H116.106C116.106 123.862 116.116 123.748 116.116 123.653ZM115.004 123.216H113.18C113.266 122.466 113.636 122.105 114.092 122.105C114.643 122.105 114.928 122.504 115.004 123.216ZM121.246 123.577C121.246 122.038 120.476 121.316 119.517 121.316C118.88 121.316 118.434 121.668 118.111 122.038L118.006 121.411H117.037V127.767L118.177 127.596V125.867C118.453 125.971 118.804 126.048 119.241 126.048C120.296 126.048 121.246 125.287 121.246 123.577ZM120.096 123.644C120.096 124.651 119.65 125.135 119.061 125.135C118.671 125.135 118.453 125.069 118.177 124.936V122.969C118.481 122.58 118.804 122.323 119.213 122.323C119.726 122.323 120.096 122.76 120.096 123.644ZM123.364 126V119.141L122.224 119.321V126H123.364ZM128.655 123.71C128.655 122.219 127.743 121.316 126.489 121.316C125.245 121.316 124.333 122.219 124.333 123.71C124.333 125.202 125.235 126.095 126.48 126.095C127.734 126.095 128.655 125.202 128.655 123.71ZM127.544 123.71C127.544 124.565 127.183 125.164 126.48 125.164C125.815 125.164 125.444 124.546 125.444 123.71C125.444 122.855 125.805 122.257 126.48 122.257C127.164 122.257 127.544 122.865 127.544 123.71ZM133.422 121.411H132.291L131.265 124.613L130.201 121.345L129.014 121.497L130.676 126.019L130.572 126.323C130.429 126.656 130.163 126.808 129.831 126.808C129.612 126.808 129.451 126.779 129.299 126.741L129.451 127.682C129.555 127.71 129.669 127.729 129.869 127.729C130.752 127.729 131.275 127.378 131.683 126.247L133.422 121.411ZM139.577 124.651C139.577 123.786 139.112 123.463 137.924 123.159C137.24 122.979 137.069 122.846 137.069 122.599C137.069 122.342 137.278 122.181 137.706 122.181C138.162 122.181 138.703 122.342 139.159 122.599L139.311 121.649C138.855 121.44 138.304 121.326 137.706 121.326C136.642 121.326 136.015 121.886 136.015 122.675C136.015 123.511 136.48 123.834 137.592 124.119C138.323 124.299 138.523 124.432 138.523 124.755C138.523 125.05 138.257 125.23 137.763 125.23C137.193 125.23 136.585 125.012 136.091 124.689L135.939 125.639C136.376 125.876 137.06 126.086 137.725 126.086C138.931 126.086 139.577 125.553 139.577 124.651ZM141.668 126V119.141L140.528 119.321V126H141.668ZM146.522 126V122.855C146.522 121.753 145.933 121.316 144.746 121.316C144.014 121.316 143.454 121.478 142.922 121.687L143.064 122.599C143.558 122.38 144.062 122.228 144.594 122.228C145.097 122.228 145.382 122.418 145.382 122.912V123.045C143.53 123.226 142.618 123.71 142.618 124.822C142.618 125.62 143.14 126.095 143.919 126.095C144.603 126.095 145.078 125.791 145.449 125.401L145.544 126H146.522ZM145.382 124.736C145.069 125.05 144.698 125.23 144.309 125.23C143.957 125.23 143.748 125.031 143.748 124.698C143.748 124.261 144.062 123.872 145.382 123.71V124.736ZM151.053 124.651C151.053 123.786 150.588 123.463 149.4 123.159C148.716 122.979 148.545 122.846 148.545 122.599C148.545 122.342 148.754 122.181 149.182 122.181C149.638 122.181 150.179 122.342 150.635 122.599L150.787 121.649C150.331 121.44 149.78 121.326 149.182 121.326C148.118 121.326 147.491 121.886 147.491 122.675C147.491 123.511 147.956 123.834 149.068 124.119C149.799 124.299 149.999 124.432 149.999 124.755C149.999 125.05 149.733 125.23 149.239 125.23C148.669 125.23 148.061 125.012 147.567 124.689L147.415 125.639C147.852 125.876 148.536 126.086 149.201 126.086C150.407 126.086 151.053 125.553 151.053 124.651ZM155.871 126V122.694C155.871 121.839 155.415 121.316 154.56 121.316C153.952 121.316 153.477 121.639 153.097 121.991V119.141L151.957 119.321V126H153.097V122.903C153.429 122.551 153.781 122.323 154.142 122.323C154.56 122.323 154.731 122.599 154.731 122.998V126H155.871ZM162.503 125.639L162.351 124.67C161.923 125.002 161.562 125.107 161.163 125.107C160.47 125.107 159.957 124.651 159.957 123.701C159.957 122.789 160.432 122.304 161.087 122.304C161.534 122.304 161.904 122.437 162.294 122.732L162.455 121.706C162.094 121.478 161.638 121.316 161.021 121.316C159.805 121.316 158.807 122.133 158.807 123.729C158.807 125.23 159.71 126.086 160.983 126.086C161.562 126.086 162.037 125.962 162.503 125.639ZM167.416 123.71C167.416 122.219 166.504 121.316 165.25 121.316C164.005 121.316 163.093 122.219 163.093 123.71C163.093 125.202 163.996 126.095 165.24 126.095C166.494 126.095 167.416 125.202 167.416 123.71ZM166.304 123.71C166.304 124.565 165.943 125.164 165.24 125.164C164.575 125.164 164.205 124.546 164.205 123.71C164.205 122.855 164.566 122.257 165.24 122.257C165.924 122.257 166.304 122.865 166.304 123.71ZM174.924 126V122.694C174.924 121.839 174.497 121.316 173.632 121.316C173.015 121.316 172.511 121.649 172.103 122.057C171.932 121.611 171.58 121.316 170.925 121.316C170.307 121.316 169.842 121.649 169.414 122.057L169.31 121.411H168.341V126H169.481V122.893C169.813 122.551 170.146 122.323 170.497 122.323C170.915 122.323 171.067 122.599 171.067 122.998V126H172.207V122.893C172.54 122.551 172.872 122.323 173.224 122.323C173.642 122.323 173.784 122.599 173.784 122.998V126H174.924ZM182.652 126V122.694C182.652 121.839 182.225 121.316 181.36 121.316C180.743 121.316 180.239 121.649 179.831 122.057C179.66 121.611 179.308 121.316 178.653 121.316C178.035 121.316 177.57 121.649 177.142 122.057L177.038 121.411H176.069V126H177.209V122.893C177.541 122.551 177.874 122.323 178.225 122.323C178.643 122.323 178.795 122.599 178.795 122.998V126H179.935V122.893C180.268 122.551 180.6 122.323 180.952 122.323C181.37 122.323 181.512 122.599 181.512 122.998V126H182.652ZM187.445 126V122.855C187.445 121.753 186.856 121.316 185.668 121.316C184.937 121.316 184.376 121.478 183.844 121.687L183.987 122.599C184.481 122.38 184.984 122.228 185.516 122.228C186.02 122.228 186.305 122.418 186.305 122.912V123.045C184.452 123.226 183.54 123.71 183.54 124.822C183.54 125.62 184.063 126.095 184.842 126.095C185.526 126.095 186.001 125.791 186.371 125.401L186.466 126H187.445ZM186.305 124.736C185.991 125.05 185.621 125.23 185.231 125.23C184.88 125.23 184.671 125.031 184.671 124.698C184.671 124.261 184.984 123.872 186.305 123.71V124.736ZM192.489 126V122.694C192.489 121.839 192.033 121.316 191.178 121.316C190.56 121.316 190.076 121.649 189.648 122.057L189.544 121.411H188.575V126H189.715V122.903C190.047 122.551 190.399 122.323 190.76 122.323C191.178 122.323 191.349 122.599 191.349 122.998V126H192.489ZM197.611 126V119.141L196.471 119.321V121.535C196.196 121.44 195.844 121.364 195.407 121.364C194.343 121.364 193.403 122.124 193.403 123.834C193.403 125.382 194.172 126.095 195.132 126.095C195.768 126.095 196.215 125.753 196.538 125.363L196.633 126H197.611ZM196.471 124.451C196.167 124.831 195.844 125.078 195.426 125.078C194.923 125.078 194.543 124.66 194.543 123.767C194.543 122.76 194.98 122.276 195.578 122.276C195.968 122.276 196.186 122.342 196.471 122.475V124.451ZM202.171 124.651C202.171 123.786 201.706 123.463 200.518 123.159C199.834 122.979 199.663 122.846 199.663 122.599C199.663 122.342 199.872 122.181 200.3 122.181C200.756 122.181 201.297 122.342 201.753 122.599L201.905 121.649C201.449 121.44 200.898 121.326 200.3 121.326C199.236 121.326 198.609 121.886 198.609 122.675C198.609 123.511 199.074 123.834 200.186 124.119C200.917 124.299 201.117 124.432 201.117 124.755C201.117 125.05 200.851 125.23 200.357 125.23C199.787 125.23 199.179 125.012 198.685 124.689L198.533 125.639C198.97 125.876 199.654 126.086 200.319 126.086C201.525 126.086 202.171 125.553 202.171 124.651Z" fill="white"/>
<rect x="19" y="112" width="68" height="20" rx="2" fill="#3BA55C"/>
<path d="M35.548 120.537L35.3675 119.445H30.2755V120.537H32.223V126H33.4865V120.537H35.548ZM39.2152 126V121.411H38.0752V124.508C37.7427 124.85 37.3817 125.078 37.0207 125.078C36.6122 125.078 36.4412 124.812 36.4412 124.413V121.411H35.3012V124.708C35.3012 125.572 35.7477 126.095 36.6122 126.095C37.2202 126.095 37.7142 125.762 38.1417 125.354L38.2462 126H39.2152ZM43.1409 122.447L42.9604 121.316C42.2479 121.354 41.7919 121.801 41.4879 122.333L41.3454 121.411H40.3764V126H41.5164V123.368C41.8394 122.874 42.4284 122.494 43.1409 122.447ZM47.7787 126V122.694C47.7787 121.839 47.3227 121.316 46.4677 121.316C45.8502 121.316 45.3657 121.649 44.9382 122.057L44.8337 121.411H43.8647V126H45.0047V122.903C45.3372 122.551 45.6887 122.323 46.0497 122.323C46.4677 122.323 46.6387 122.599 46.6387 122.998V126H47.7787ZM55.123 123.577C55.123 122.038 54.363 121.316 53.394 121.316C52.8145 121.316 52.387 121.62 52.0925 121.924V119.141L50.9525 119.321V125.753C51.5225 125.943 52.121 126.057 52.8335 126.057C54.2015 126.057 55.123 125.268 55.123 123.577ZM53.9735 123.644C53.9735 124.689 53.5365 125.126 52.8145 125.126C52.4915 125.126 52.33 125.088 52.0925 125.002V122.922C52.3775 122.58 52.7195 122.323 53.0995 122.323C53.6125 122.323 53.9735 122.76 53.9735 123.644ZM60.1401 123.71C60.1401 122.219 59.2281 121.316 57.9741 121.316C56.7296 121.316 55.8176 122.219 55.8176 123.71C55.8176 125.202 56.7201 126.095 57.9646 126.095C59.2186 126.095 60.1401 125.202 60.1401 123.71ZM59.0286 123.71C59.0286 124.565 58.6676 125.164 57.9646 125.164C57.2996 125.164 56.9291 124.546 56.9291 123.71C56.9291 122.855 57.2901 122.257 57.9646 122.257C58.6486 122.257 59.0286 122.865 59.0286 123.71ZM63.5349 126L63.3924 125.04C63.2879 125.069 63.1644 125.078 63.0314 125.078C62.5944 125.078 62.4234 124.879 62.4234 124.508V122.342H63.5064L63.3639 121.411H62.4234V119.787L61.3024 119.958V121.411H60.6564V122.342H61.3024V124.698C61.3024 125.743 61.9104 126.076 62.8129 126.076C63.1454 126.076 63.3544 126.038 63.5349 126ZM70.5029 123.71C70.5029 122.219 69.5909 121.316 68.3369 121.316C67.0924 121.316 66.1804 122.219 66.1804 123.71C66.1804 125.202 67.0829 126.095 68.3274 126.095C69.5814 126.095 70.5029 125.202 70.5029 123.71ZM69.3914 123.71C69.3914 124.565 69.0304 125.164 68.3274 125.164C67.6624 125.164 67.2919 124.546 67.2919 123.71C67.2919 122.855 67.6529 122.257 68.3274 122.257C69.0114 122.257 69.3914 122.865 69.3914 123.71ZM75.3416 126V122.694C75.3416 121.839 74.8856 121.316 74.0306 121.316C73.4131 121.316 72.9286 121.649 72.5011 122.057L72.3966 121.411H71.4276V126H72.5676V122.903C72.9001 122.551 73.2516 122.323 73.6126 122.323C74.0306 122.323 74.2016 122.599 74.2016 122.998V126H75.3416Z" fill="white"/>
<defs>
<clipPath id="clip0_703_1094">
<rect x="19" y="68" width="171" height="37" rx="4" fill="white"/>
</clipPath>
</defs>
</svg>
